# xmcd CD database file
#
# Track frame offsets:
#	150
#	16130
#	40212
#	54775
#	69112
#	82475
#	103800
#	119937
#	138992
#	160862
#	174787
#	190407
#
# Disc length: 2757 seconds
#
# Revision: 0
# Processed by: cddbd v1.4PL0 Copyright (c) Steve Scherf et al.
# Submitted via: CDex 1.50beta8
#
DISCID=9f0ac30c
DTITLE=ROLLER COASTER featurring Mituyosi Azuma - Boogie Discounter
DYEAR=1991
DGENRE=Blues
TTITLE0=Knockin' At Your Door
TTITLE1=Merry Go Round Blues
TTITLE2=I Believe In A Woman
TTITLE3=Goin' Back To Reno
TTITLE4=Boogie In The Moonlight
TTITLE5=My Baby Left Me
TTITLE6=You're Killin' Me
TTITLE7=Good Time Woman
TTITLE8=Boogie Rambler
TTITLE9=Pick Me Up On Your Way Down
TTITLE10=A Mother's Love
TTITLE11=I'll Be a Good Boy
EXTD=YEAR: 1991
EXTT0=
EXTT1=
EXTT2=
EXTT3=
EXTT4=
EXTT5=
EXTT6=
EXTT7=
EXTT8=
EXTT9=
EXTT10=
EXTT11=
PLAYORDER=
